Patient4_TMGait_0pt5_01_right_19_EMG.mot
version=1
nRows=16
nColumns=33
inDegrees=no
endheader
time	1LAddLong	2LGlutMax	3LGlutMed	4LIliopsoas	5LSemiMemb	6LBicFemLong	7LRecFem	8LVastMed	9LVastLat	10LGasMed	11LTibAnt	12lTibPost	13LPeroneusLong	14LSol	15LExtDigLong	16LFlexDigLong	17RAddLong	18RGlutMax	19RGlutMed	20RIliopsoas	21RSemiMemb	22RBicFemLong	23RRecFem	24RVastMed	25RVastLat	26RGasMed	27RTibAnt	28RTibPost	29RPeroneusLong	30RSol	31RExtDigLong	32RFlexDigLong
25.715	-0.043945	0.1033	0.089874	0.014496	-0.12909	-0.3212	0.10757	0.022278	0.003967	0.11429	-0.013885	-0.029449	0.18707	0.005798	0.001221	-0.00061	0.015106	0.038452	-0.084991	0.00824	0.083618	-0.1265	0.082092	-0.17044	-0.072327	-0.014038	0.31097	0.001221	-0.12314	-0.087585	-0.007629	-0.000153
25.716	-0.019989	0.088501	0.037994	0.001068	-0.13153	-0.28839	-0.024872	0.018005	0.023346	-0.084229	-0.024109	-0.016937	0.13412	-0.001984	-0.039063	0.008545	0.025177	-0.001068	0.028992	0.021515	0.07431	-0.084229	0.034943	-0.17364	-0.12589	-0.015869	-0.20325	0.000458	-0.33264	-0.042725	-0.006561	-0.000763
25.717	0.011749	0.087433	0.039825	0.003204	0.045929	-0.40924	-0.084686	0.000763	0.084991	-0.22339	-0.02121	-0.004883	-0.008392	-0.035858	-0.042114	0.014191	0.010376	0.065308	-0.025024	-0.030975	0.059967	-0.11261	0.11139	-0.20523	-0.14328	-0.012054	-0.35797	0.001831	-0.17761	0.051575	-0.006714	-0.001373
25.718	0.015411	0.099335	-0.000305	0.009155	0.17395	-0.67947	-0.055847	-0.002747	0.032654	-0.13077	-0.00824	-0.000458	-0.18601	-0.042114	-0.033112	0.006104	0.017853	-0.003357	-0.054474	-0.072021	0.062866	-0.050201	0.021362	-0.17853	-0.06424	-0.011902	-0.26535	0.001831	0.09903	0.046082	-0.005188	0.00061
25.719	0.014343	0.064697	-0.007324	0.006866	0.04303	-0.6076	-0.073242	0.003052	-0.02533	-0.041351	0.000763	0.007935	-0.18417	0.049438	-0.019531	0.008545	-0.006409	0.03067	-0.10956	-0.070801	0.068665	0.020752	-0.27756	0.019379	0.079498	-0.007935	-0.007629	-0.001221	-0.13886	-0.11337	0.000458	-0.013885
25.72	0.003204	0.12665	0.02655	-0.013275	-0.013123	-0.36026	-0.075378	0.011902	-0.080261	-0.003204	0.050964	0.007019	-0.1593	0.068359	0.005951	0.008698	0.006714	0.018921	0.055389	-0.045319	0.025482	-0.029907	-0.24551	0.042877	0.15793	-0.002441	0.062714	0.002594	1.0457	-0.11185	-0.004883	-0.001831
25.721	0.032959	0.12634	-0.036774	-0.002441	0.055542	-0.44495	-0.10895	-0.007782	-0.10162	0.037384	0.044556	0.01297	-0.16373	0.080414	0.027618	0.00885	0.016632	0.021515	0.11871	-0.0354	0.030365	-0.060425	-0.060425	0.072327	0.14771	-0.007782	0.081482	0.000916	1.0724	-0.067596	-0.003052	-0.007172
25.722	0.065613	0.10849	-0.027771	0.010071	0.1294	-0.3862	-0.12039	-0.015106	-0.063629	0.086517	0.078125	0.011444	-0.13001	0.05249	0.1828	0.006104	0.006714	-0.031433	-0.11063	-0.009155	0.031128	0.02121	0.02655	0.008698	0.10681	-0.002441	0.20737	0.003815	-0.1445	-0.069885	-0.005798	-0.00946
25.723	0.079498	0.095978	0.011902	0.011749	0.14252	-0.32867	-0.039063	-0.022278	0.008545	0.071411	0.14786	0.016022	-0.13748	0.045776	0.10895	0.013275	0.001831	-0.062408	-0.10605	-0.035858	0.04776	0.10407	-0.013428	-0.03891	0.011139	-0.002289	0.36957	-0.001984	-1.3745	-0.021667	0.000458	-0.009766
25.724	0.066528	0.065002	0.083008	-0.002747	0.15778	-0.31952	-0.081024	-0.010223	0.10147	-0.04837	-0.11978	0.016937	-0.031281	0.071564	0.37537	0.001831	0.000458	-0.083008	0.027466	-0.016327	0.026093	0.10315	-0.02655	-0.025635	-0.050049	-0.00351	0.16434	-0.000305	-0.98724	0.14282	-0.005188	-0.0177
25.725	0.038605	0.055695	-0.000763	0.006409	0.07843	-0.058746	-0.018311	0.009155	0.14297	-0.040588	-0.1207	0.048065	-0.006104	0.082703	0.7637	0.005646	0.014191	-0.033569	0.059204	-0.030975	0.009918	0.047607	-0.023346	-0.029907	-0.019226	-0.000916	-0.055542	0.003662	-0.73837	0.11215	-0.005188	-0.008545
25.726	0.018158	0.07019	0.093536	-0.005493	-0.00351	0.18646	0.05249	0.017548	0.21515	-0.067291	0.07782	0.11658	0.004272	0.10574	0.32394	0.007019	0.015717	-0.12619	-0.45761	-0.048981	0.001068	0.03479	-0.023499	-0.002594	0.04776	-0.005493	0.014038	-0.000305	-1.2866	0.18738	-0.001984	-0.00473
25.727	0.005035	0.019073	0.079803	-0.001068	-0.028381	0.23056	0.007324	0.018921	0.25772	-0.087585	0.21164	-0.007782	0.083618	0.13901	0.92499	0.018463	0.026398	-0.085449	-0.31265	-0.078735	-0.014038	0.079651	-0.008545	-0.06958	0.053711	-0.005341	0.11688	-0.002899	-0.86029	0.25269	-0.003662	-0.00885
25.728	-0.005188	-0.008087	0.063019	-0.01236	-0.036469	0.25436	-0.007629	0.019379	0.22583	-0.10315	0.10513	-0.043793	0.17685	0.13016	-0.34332	0.022736	0.028687	-0.11429	0.068817	-0.049591	-0.016327	0.093994	-0.10452	-0.034027	0.053864	-0.002594	0.029144	-0.000763	0.008087	0.2179	-0.00473	-0.008392
25.729	-0.013123	0.057983	0.10407	0.005493	-0.081787	0.16281	0.040436	0.024109	0.12878	-0.10284	0.074768	-0.02182	0.14938	0.10025	-0.71884	0.022278	0.024414	-0.091553	0.13229	-0.06073	-0.047455	0.052643	-0.18601	-0.013885	0.039825	0.006409	-0.080261	0.002899	1.5234	0.050201	-0.005951	0.004272
25.73	-0.019379	0.095673	0.055695	0.01297	-0.16861	0.014191	0.080719	0.032806	-0.041199	-0.046082	0.050659	-0.03006	0.070801	0.068512	-0.68939	0.001221	0.028229	-0.063324	0.33402	-0.059204	-0.065613	0.005798	-0.077057	0.02594	0.087585	0.000153	-0.018005	0.007324	0.87463	-0.15854	-0.007324	-0.000458
